<svg width="64" height="64" xmlns="http://www.w3.org/2000/svg">

 <g>
  <title>background</title>
  <rect fill="none" id="canvas_background" height="402" width="582" y="-1" x="-1"/>
 </g>
 <g>
  <title>Layer 1</title>
  <path id="svg_3" fill-rule="evenodd" fill="#ffffff" d="m53.1,22c0,0 0,0 0,0c-5.7,0 -10.3,4.5 -10.3,10.1c0,5.6 4.6,10.1 10.3,10.2c0,0 0,0 0.1,0c5.7,0 10.4,-4.5 10.4,-10.1c-0.1,-5.7 -4.7,-10.2 -10.5,-10.2zm0,17.2c-4.1,0 -7.4,-3.3 -7.4,-7.3c0,-4 3.3,-7.3 7.4,-7.3c4.1,0 7.4,3.3 7.4,7.3c0,4.1 -3.3,7.3 -7.4,7.3z" clip-rule="evenodd"/>
  <path id="svg_5" fill-rule="evenodd" fill="#ffffff" d="m42.2,22c-2.9,2 -4.8,5.8 -4.8,9.8c0,4.3 2.1,8.2 5.3,10.2l-3.3,0c-3.2,-2 -5.2,-5.9 -5.2,-10.2c0,-4 1.9,-7.8 4.8,-9.8l3.2,0z" clip-rule="evenodd"/>
  <path id="svg_7" fill-rule="evenodd" fill="#ffffff" d="m33.8,22c-2.9,2 -4.7,5.8 -4.7,9.8c0,4.3 2.1,8.2 5.3,10.2l-3.4,0c-3.2,-2 -5.3,-5.9 -5.3,-10.2c0,-4 1.9,-7.8 4.8,-9.8l3.3,0z" clip-rule="evenodd"/>
  <path id="svg_9" fill-rule="evenodd" fill="#ffffff" d="m25.4,22c-2.9,2 -4.8,5.8 -4.8,9.8c0,4.3 2.1,8.2 5.3,10.2l-3.3,0c-3.2,-2 -5.2,-5.9 -5.2,-10.2c0,-4 1.9,-7.8 4.8,-9.8l3.2,0z" clip-rule="evenodd"/>
  <path id="svg_11" fill-rule="evenodd" fill="#ffffff" d="m17,22c-2.9,2 -4.7,5.8 -4.7,9.8c0,4.3 2.1,8.2 5.3,10.2l-3.3,0c-3.2,-2 -5.2,-5.9 -5.2,-10.2c0,-4 1.8,-7.8 4.8,-9.8l3.1,0z" clip-rule="evenodd"/>
  <path id="svg_13" fill-rule="evenodd" fill="#ffffff" d="m8.6,22c-2.9,2 -4.7,5.8 -4.7,9.8c0,4.3 2.1,8.2 5.3,10.2l-3.5,0c-3.2,-2 -5.2,-5.9 -5.2,-10.2c0,-4 1.9,-7.8 4.8,-9.8l3.3,0z" clip-rule="evenodd"/>
 </g>
</svg>